<svg xmlns="http://www.w3.org/2000/svg" xmlns:xlink="http://www.w3.org/1999/xlink" zoomAndPan="magnify" viewBox="0 0 375 374.999991" height="500" preserveAspectRatio="xMidYMid meet" version="1.0"><defs><g/><clipPath id="e4480f4a86"><path d="M 182.011719 43.261719 L 321 43.261719 L 321 185 L 182.011719 185 Z M 182.011719 43.261719 " clip-rule="nonzero"/></clipPath><clipPath id="f386ea8d76"><path d="M 186.511719 43.261719 L 318.183594 43.261719 C 319.378906 43.261719 320.523438 43.734375 321.367188 44.578125 C 322.210938 45.421875 322.683594 46.566406 322.683594 47.761719 L 322.683594 180.027344 C 322.683594 181.21875 322.210938 182.363281 321.367188 183.207031 C 320.523438 184.050781 319.378906 184.527344 318.183594 184.527344 L 186.511719 184.527344 C 185.316406 184.527344 184.171875 184.050781 183.328125 183.207031 C 182.484375 182.363281 182.011719 181.21875 182.011719 180.027344 L 182.011719 47.761719 C 182.011719 46.566406 182.484375 45.421875 183.328125 44.578125 C 184.171875 43.734375 185.316406 43.261719 186.511719 43.261719 " clip-rule="nonzero"/></clipPath><clipPath id="592fc0bb88"><path d="M 1.898438 0 L 190 0 L 190 192 L 1.898438 192 Z M 1.898438 0 " clip-rule="nonzero"/></clipPath><clipPath id="dff2d0fce8"><path d="M 6.398438 -0.898438 L 186.289062 -0.898438 C 187.480469 -0.898438 188.625 -0.425781 189.46875 0.417969 C 190.3125 1.261719 190.789062 2.40625 190.789062 3.601562 L 190.789062 187.675781 C 190.789062 188.867188 190.3125 190.011719 189.46875 190.855469 C 188.625 191.699219 187.480469 192.175781 186.289062 192.175781 L 6.398438 192.175781 C 5.207031 192.175781 4.0625 191.699219 3.21875 190.855469 C 2.371094 190.011719 1.898438 188.867188 1.898438 187.675781 L 1.898438 3.601562 C 1.898438 2.40625 2.371094 1.261719 3.21875 0.417969 C 4.0625 -0.425781 5.207031 -0.898438 6.398438 -0.898438 " clip-rule="nonzero"/></clipPath><clipPath id="0262ef38da"><path d="M 175.359375 177.78125 L 372 177.78125 L 372 373 L 175.359375 373 Z M 175.359375 177.78125 " clip-rule="nonzero"/></clipPath><clipPath id="002e184e4f"><path d="M 179.859375 177.78125 L 368.601562 177.78125 C 369.792969 177.78125 370.9375 178.253906 371.78125 179.097656 C 372.628906 179.941406 373.101562 181.085938 373.101562 182.28125 L 373.101562 368.449219 C 373.101562 369.644531 372.628906 370.789062 371.78125 371.632812 C 370.9375 372.476562 369.792969 372.949219 368.601562 372.949219 L 179.859375 372.949219 C 178.664062 372.949219 177.519531 372.476562 176.675781 371.632812 C 175.832031 370.789062 175.359375 369.644531 175.359375 368.449219 L 175.359375 182.28125 C 175.359375 181.085938 175.832031 179.941406 176.675781 179.097656 C 177.519531 178.253906 178.664062 177.78125 179.859375 177.78125 " clip-rule="nonzero"/></clipPath><clipPath id="af0c8739db"><path d="M 55.386719 184.507812 L 184.949219 184.507812 L 184.949219 312 L 55.386719 312 Z M 55.386719 184.507812 " clip-rule="nonzero"/></clipPath><clipPath id="6f3b975dd9"><path d="M 59.886719 184.507812 L 179.828125 184.507812 C 181.023438 184.507812 182.167969 184.980469 183.011719 185.824219 C 183.855469 186.667969 184.328125 187.8125 184.328125 189.007812 L 184.328125 308.089844 C 184.328125 309.285156 183.855469 310.429688 183.011719 311.273438 C 182.167969 312.117188 181.023438 312.589844 179.828125 312.589844 L 59.886719 312.589844 C 58.695312 312.589844 57.546875 312.117188 56.703125 311.273438 C 55.859375 310.429688 55.386719 309.285156 55.386719 308.089844 L 55.386719 189.007812 C 55.386719 187.8125 55.859375 186.667969 56.703125 185.824219 C 57.546875 184.980469 58.695312 184.507812 59.886719 184.507812 " clip-rule="nonzero"/></clipPath><clipPath id="d38f886f9b"><path d="M 182.148438 52.863281 L 312 52.863281 L 312 183 L 182.148438 183 Z M 182.148438 52.863281 " clip-rule="nonzero"/></clipPath><clipPath id="0317ea9f4f"><path d="M 10.726562 8.589844 L 184.394531 8.589844 L 184.394531 183.609375 L 10.726562 183.609375 Z M 10.726562 8.589844 " clip-rule="nonzero"/></clipPath><clipPath id="8e9d61df07"><path d="M 182.148438 183.476562 L 361 183.476562 L 361 361.570312 L 182.148438 361.570312 Z M 182.148438 183.476562 " clip-rule="nonzero"/></clipPath><clipPath id="431b1e8526"><path d="M 63.253906 183.609375 L 183.59375 183.609375 L 183.59375 304.625 L 63.253906 304.625 Z M 63.253906 183.609375 " clip-rule="nonzero"/></clipPath></defs><g clip-path="url(#e4480f4a86)"><g clip-path="url(#f386ea8d76)"><path fill="#ffffff" d="M 182.011719 43.261719 L 320.503906 43.261719 L 320.503906 186.222656 L 182.011719 186.222656 Z M 182.011719 43.261719 " fill-opacity="1" fill-rule="nonzero"/></g></g><g clip-path="url(#592fc0bb88)"><g clip-path="url(#dff2d0fce8)"><path fill="#ffffff" d="M 1.898438 -0.898438 L 189.828125 -0.898438 L 189.828125 191.730469 L 1.898438 191.730469 Z M 1.898438 -0.898438 " fill-opacity="1" fill-rule="nonzero"/></g></g><g clip-path="url(#0262ef38da)"><g clip-path="url(#002e184e4f)"><path fill="#ffffff" d="M 175.359375 177.78125 L 371.335938 177.78125 L 371.335938 373.757812 L 175.359375 373.757812 Z M 175.359375 177.78125 " fill-opacity="1" fill-rule="nonzero"/></g></g><g clip-path="url(#af0c8739db)"><g clip-path="url(#6f3b975dd9)"><path fill="#ffffff" d="M 55.386719 184.507812 L 184.949219 184.507812 L 184.949219 311.796875 L 55.386719 311.796875 Z M 55.386719 184.507812 " fill-opacity="1" fill-rule="nonzero"/></g></g><g clip-path="url(#d38f886f9b)"><path fill="#416788" d="M 182.148438 52.863281 L 311.9375 52.863281 L 311.9375 182.65625 L 182.148438 182.65625 Z M 182.148438 52.863281 " fill-opacity="1" fill-rule="nonzero"/></g><g clip-path="url(#0317ea9f4f)"><path fill="#1bac9a" d="M 10.726562 8.589844 L 186.386719 8.589844 L 186.386719 184.253906 L 10.726562 184.253906 Z M 10.726562 8.589844 " fill-opacity="1" fill-rule="nonzero"/></g><g clip-path="url(#8e9d61df07)"><path fill="#f5c45c" d="M 182.148438 183.476562 L 360.894531 183.476562 L 360.894531 362.226562 L 182.148438 362.226562 Z M 182.148438 183.476562 " fill-opacity="1" fill-rule="nonzero"/></g><g fill="#ffffff" fill-opacity="1"><g transform="translate(31.534329, 159.918225)"><g><path d="M 67.921875 -130.984375 C 84.390625 -130.984375 97.925781 -127.644531 108.53125 -120.96875 C 119.132812 -114.300781 124.5625 -104.414062 124.8125 -91.3125 L 124.8125 -89.078125 L 86.078125 -89.078125 L 86.078125 -89.8125 C 86.078125 -93.5625 84.703125 -96.679688 81.953125 -99.171875 C 79.210938 -101.671875 75.035156 -102.921875 69.421875 -102.921875 C 63.929688 -102.921875 59.71875 -102.109375 56.78125 -100.484375 C 53.851562 -98.859375 52.390625 -96.863281 52.390625 -94.5 C 52.390625 -91.132812 54.382812 -88.640625 58.375 -87.015625 C 62.375 -85.390625 68.800781 -83.703125 77.65625 -81.953125 C 88.007812 -79.835938 96.519531 -77.625 103.1875 -75.3125 C 109.863281 -73.007812 115.695312 -69.238281 120.6875 -64 C 125.6875 -58.757812 128.25 -51.648438 128.375 -42.671875 C 128.375 -27.441406 123.222656 -16.144531 112.921875 -8.78125 C 102.628906 -1.425781 88.878906 2.25 71.671875 2.25 C 51.585938 2.25 35.960938 -1.117188 24.796875 -7.859375 C 13.628906 -14.597656 8.046875 -26.507812 8.046875 -43.59375 L 47.15625 -43.59375 C 47.15625 -37.113281 48.835938 -32.78125 52.203125 -30.59375 C 55.578125 -28.40625 60.816406 -27.3125 67.921875 -27.3125 C 73.160156 -27.3125 77.492188 -27.875 80.921875 -29 C 84.359375 -30.125 86.078125 -32.429688 86.078125 -35.921875 C 86.078125 -39.046875 84.171875 -41.382812 80.359375 -42.9375 C 76.554688 -44.5 70.351562 -46.15625 61.75 -47.90625 C 51.269531 -50.144531 42.597656 -52.476562 35.734375 -54.90625 C 28.878906 -57.34375 22.894531 -61.367188 17.78125 -66.984375 C 12.664062 -72.597656 10.109375 -80.207031 10.109375 -89.8125 C 10.109375 -103.914062 15.566406 -114.300781 26.484375 -120.96875 C 37.398438 -127.644531 51.210938 -130.984375 67.921875 -130.984375 Z M 67.921875 -130.984375 "/></g></g></g><g fill="#ffffff" fill-opacity="1"><g transform="translate(206.01293, 336.191638)"><g><path d="M 86.078125 -128.734375 C 94.054688 -128.734375 101.164062 -126.894531 107.40625 -123.21875 C 113.644531 -119.539062 118.507812 -114.488281 122 -108.0625 C 125.5 -101.632812 127.25 -94.429688 127.25 -86.453125 L 127.25 -84.015625 C 127.25 -76.035156 125.5 -68.800781 122 -62.3125 C 118.507812 -55.820312 113.644531 -50.738281 107.40625 -47.0625 C 101.164062 -43.382812 94.054688 -41.546875 86.078125 -41.546875 L 55.203125 -41.546875 L 55.203125 0 L 13.84375 0 L 13.84375 -128.734375 Z M 55.203125 -71.671875 L 72.234375 -71.671875 C 76.597656 -71.671875 79.867188 -72.789062 82.046875 -75.03125 C 84.234375 -77.28125 85.328125 -80.335938 85.328125 -84.203125 L 85.328125 -85.703125 C 85.328125 -89.691406 84.234375 -92.773438 82.046875 -94.953125 C 79.867188 -97.140625 76.597656 -98.234375 72.234375 -98.234375 L 55.203125 -98.234375 Z M 55.203125 -71.671875 "/></g></g></g><g clip-path="url(#431b1e8526)"><path fill="#f46443" d="M 63.253906 183.609375 L 184.316406 183.609375 L 184.316406 304.675781 L 63.253906 304.675781 Z M 63.253906 183.609375 " fill-opacity="1" fill-rule="nonzero"/></g></svg>